<?xml version="1.0" standalone="no"?>
<!DOCTYPE svg PUBLIC "-//W3C//DTD SVG 20010904//EN"
 "http://www.w3.org/TR/2001/REC-SVG-20010904/DTD/svg10.dtd">
<svg version="1.0" xmlns="http://www.w3.org/2000/svg"
 width="260.000000pt" height="260.000000pt" viewBox="0 0 260.000000 260.000000"
 preserveAspectRatio="xMidYMid meet">
<metadata>
Created by potrace 1.11, written by Peter Selinger 2001-2013
</metadata>
<g transform="translate(0.000000,260.000000) scale(0.100000,-0.100000)"
fill="#000000" stroke="none">
<path d="M1319 2593 c-1 -5 -2 -174 -2 -378 -2 -320 -4 -370 -17 -372 -8 -1
-98 -4 -200 -6 -163 -4 -196 -8 -275 -31 -49 -15 -115 -39 -145 -53 -248 -115
-448 -361 -507 -623 -25 -114 -25 -316 1 -420 86 -339 336 -592 675 -682 148
-39 403 -27 547 25 271 99 493 345 564 627 28 111 31 140 31 313 l0 157 123 0
122 0 102 176 102 176 -101 169 -102 169 -122 0 -123 0 -1 358 c0 196 0 367
-1 380 l0 22 -335 0 c-184 0 -335 -3 -336 -7z m-4 -1590 c-3 -157 -9 -185 -55
-239 -59 -70 -168 -101 -253 -72 -170 58 -215 285 -79 399 60 50 91 57 248 58
l141 1 -2 -147z"/>
</g>
</svg>
